
<!-- Generator: Adobe Illustrator 19.0.0, SVG Export Plug-In . SVG Version: 6.00 Build 0)  -->
<svg xmlns="http://www.w3.org/2000/svg" xmlns:xlink="http://www.w3.org/1999/xlink" version="1.1" id="Layer_1" x="0px" y="0px" viewBox="0 2 98 98" style="enable-background:new 0 2 98 98;" xml:space="preserve" width="512" height="512">
<style type="text/css">
	.st0{fill:url(#SVGID_1_);}
	.st1{fill:url(#SVGID_2_);}
	.st2{fill:url(#SVGID_3_);}
</style>
<g>
	<linearGradient id="SVGID_1_" gradientUnits="userSpaceOnUse" x1="72.4" y1="13.25" x2="72.4" y2="88.4896">
		<stop offset="0" style="stop-color:#00EFD1"/>
		<stop offset="1" style="stop-color:#00ACEA"/>
	</linearGradient>
	<path class="st0" d="M72.4,69.7c-5.5,0-10,4.5-10,10s4.5,10,10,10s10-4.5,10-10S77.9,69.7,72.4,69.7z M72.4,83.7c-2.2,0-4-1.8-4-4   c0-2.2,1.8-4,4-4c2.2,0,4,1.8,4,4C76.4,81.9,74.6,83.7,72.4,83.7z"/>
	<linearGradient id="SVGID_2_" gradientUnits="userSpaceOnUse" x1="48.9883" y1="13.25" x2="48.9883" y2="88.4896">
		<stop offset="0" style="stop-color:#00EFD1"/>
		<stop offset="1" style="stop-color:#00ACEA"/>
	</linearGradient>
	<path class="st1" d="M88.5,31.1c-0.6-0.7-1.4-1.2-2.4-1.2H27.4l-2.7-11.3c-0.3-1.4-1.5-2.3-2.9-2.3h-9.9c-1.7,0-3,1.3-3,3   s1.3,3,3,3h7.5l9.8,40.8c0.3,1.4,1.5,2.3,2.9,2.3h46.7c1.4,0,2.6-0.9,2.9-2.3L89,33.6C89.2,32.7,89,31.8,88.5,31.1z M76.5,59.4h-42   l-5.6-23.5h53.4L76.5,59.4z"/>
	<linearGradient id="SVGID_3_" gradientUnits="userSpaceOnUse" x1="36.1" y1="13.25" x2="36.1" y2="88.4896">
		<stop offset="0" style="stop-color:#00EFD1"/>
		<stop offset="1" style="stop-color:#00ACEA"/>
	</linearGradient>
	<path class="st2" d="M36.1,69.7c-5.5,0-10,4.5-10,10s4.5,10,10,10s10-4.5,10-10S41.6,69.7,36.1,69.7z M36.1,83.7c-2.2,0-4-1.8-4-4   c0-2.2,1.8-4,4-4c2.2,0,4,1.8,4,4C40.1,81.9,38.3,83.7,36.1,83.7z"/>
</g>
</svg>
